<?xml version="1.0" encoding="UTF-8"?>
<svg version="1.1" xmlns="http://www.w3.org/2000/svg" width="512" height="512">
<path d="M0 0 C1.51427582 0.00081573 1.51427582 0.00081573 3.05914307 0.00164795 C19.57458953 0.04242844 35.47683935 0.97005679 51.6875 4.375 C52.70279785 4.58398926 53.7180957 4.79297852 54.76416016 5.00830078 C92.00927307 12.92207219 126.61435877 29.09831369 156.6875 52.375 C157.574375 53.04917969 158.46125 53.72335938 159.375 54.41796875 C174.95857275 66.53020077 189.56897311 80.815951 201.6875 96.375 C202.83412109 97.77878906 202.83412109 97.77878906 204.00390625 99.2109375 C238.63252637 142.45502491 257.12615997 197.95439907 257.00317383 253.10229492 C257.0000221 256.04188487 257.02354926 258.9804558 257.04882812 261.91992188 C257.09348737 275.29306192 255.88801542 288.18916711 253.6875 301.375 C253.40531616 303.08055054 253.40531616 303.08055054 253.11743164 304.82055664 C246.09196967 343.93204746 229.10915906 381.11452178 204.6875 412.375 C203.92824219 413.34695313 203.16898437 414.31890625 202.38671875 415.3203125 C190.05236402 430.69991644 176.25145499 445.25265196 160.6875 457.375 C159.75164062 458.13941406 158.81578125 458.90382813 157.8515625 459.69140625 C125.89878299 485.2782721 86.73238322 501.78801276 46.6875 509.375 C45.87812988 509.53871094 45.06875977 509.70242188 44.23486328 509.87109375 C14.19360013 515.74227137 -20.4490176 514.64762909 -50.3125 508.375 C-51.83544678 508.06151611 -51.83544678 508.06151611 -53.38916016 507.74169922 C-90.41987024 499.87348372 -125.54229285 483.80253986 -155.3125 460.375 C-156.281875 459.61703125 -157.25125 458.8590625 -158.25 458.078125 C-173.63624823 445.75164204 -188.19043448 431.93859226 -200.3125 416.375 C-201.45912109 414.97121094 -201.45912109 414.97121094 -202.62890625 413.5390625 C-228.2157721 381.58628299 -244.72551276 342.41988322 -252.3125 302.375 C-252.47621094 301.56562988 -252.63992187 300.75625977 -252.80859375 299.92236328 C-258.27819558 271.93585724 -258.15727511 238.28078161 -252.3125 210.375 C-252.11382324 209.40014648 -251.91514648 208.42529297 -251.71044922 207.42089844 C-243.54031954 168.36339461 -227.91464583 131.92599681 -203.3125 100.375 C-202.63960937 99.49070312 -201.96671875 98.60640625 -201.2734375 97.6953125 C-189.1698765 82.10512899 -174.87081503 67.49295523 -159.3125 55.375 C-158.37664062 54.61058594 -157.44078125 53.84617188 -156.4765625 53.05859375 C-112.28447099 17.67083924 -56.20652131 -0.11434184 0 0 Z M-161.0625 102 C-162.81720386 103.7870601 -164.5676744 105.57829383 -166.3125 107.375 C-166.98152344 108.03757813 -167.65054688 108.70015625 -168.33984375 109.3828125 C-170.98737905 112.16116719 -172.2719239 113.77164776 -172.53338623 117.65950012 C-172.31982283 121.25182352 -171.82972619 124.55366716 -171.09082031 128.07299805 C-170.82344055 129.36090744 -170.55606079 130.64881683 -170.28057861 131.97575378 C-169.98452767 133.36287036 -169.68786169 134.74985578 -169.390625 136.13671875 C-169.08613265 137.57440711 -168.78183487 139.01213668 -168.47772217 140.4499054 C-167.84055593 143.4525103 -167.19745062 146.45377396 -166.55078125 149.4543457 C-165.72419975 153.29453531 -164.91814624 157.13872203 -164.11714554 160.98431683 C-163.49596505 163.95053607 -162.86117945 166.91372214 -162.22255707 169.87623024 C-161.91950738 171.2925439 -161.6213212 172.70990751 -161.32816315 174.12830162 C-160.91697217 176.11027872 -160.4848015 178.08786807 -160.05175781 180.06518555 C-159.81193176 181.18990768 -159.57210571 182.31462982 -159.32501221 183.47343445 C-157.87273505 187.63523846 -155.65329119 189.59965819 -151.89672852 191.77197266 C-151.00397217 192.1901123 -150.11121582 192.60825195 -149.19140625 193.0390625 C-148.18303711 193.51714355 -147.17466797 193.99522461 -146.13574219 194.48779297 C-145.05969727 194.98682129 -143.98365234 195.48584961 -142.875 196 C-140.62085178 197.05677569 -138.36694976 198.11407668 -136.11328125 199.171875 C-134.97842285 199.70232422 -133.84356445 200.23277344 -132.67431641 200.77929688 C-129.48208386 202.29450617 -126.32210355 203.86038712 -123.16796875 205.453125 C-122.22042725 205.92540527 -121.27288574 206.39768555 -120.29663086 206.88427734 C-118.50821469 207.77760711 -116.72611143 208.68371772 -114.95141602 209.60400391 C-110.47787726 211.91719396 -110.47787726 211.91719396 -105.60546875 211.9140625 C-102.76045879 210.00446467 -100.05591096 208.01161504 -97.375 205.875 C-92.88685938 202.34431234 -88.3526822 198.91834888 -83.6875 195.625 C-78.09648825 191.66953482 -72.56910065 187.63463146 -67.0625 183.5625 C-60.8153737 178.94582049 -54.55031189 174.35636548 -48.25 169.8125 C-47.52039063 169.28615967 -46.79078125 168.75981934 -46.0390625 168.2175293 C-42.16122903 165.42242865 -38.27904791 162.6334599 -34.39453125 159.84765625 C-33.5857251 159.26636963 -32.77691895 158.68508301 -31.94360352 158.08618164 C-30.40512624 156.98055391 -28.86533912 155.87674553 -27.32397461 154.77514648 C-26.62409424 154.27184814 -25.92421387 153.7685498 -25.203125 153.25 C-24.59500977 152.81429687 -23.98689453 152.37859375 -23.36035156 151.9296875 C-22.68456055 151.41664063 -22.00876953 150.90359375 -21.3125 150.375 C-20.25434082 149.78050049 -19.19618164 149.18600098 -18.10595703 148.57348633 C-15.80449185 146.61832524 -15.34411806 145.54746063 -14.79138184 142.53256226 C-14.6159577 138.78740409 -14.63761627 135.06984671 -14.7265625 131.32421875 C-14.73776192 129.94132837 -14.74629859 128.55841409 -14.75228882 127.17549133 C-14.77512992 123.54659575 -14.83400759 119.91915551 -14.9005127 116.29083252 C-14.96204006 112.58406257 -14.98932583 108.87705596 -15.01953125 105.16992188 C-15.08375956 97.9042865 -15.18607672 90.63984764 -15.3125 83.375 C-15.9506514 83.04323257 -16.5888028 82.71146515 -17.24629211 82.36964417 C-20.20246736 80.83204738 -23.15787625 79.29298297 -26.11328125 77.75390625 C-27.11653442 77.23235962 -28.1197876 76.71081299 -29.15344238 76.17346191 C-41.57529213 69.70151084 -53.8439575 62.95232659 -66.1015625 56.17578125 C-67.49338745 55.40729858 -67.49338745 55.40729858 -68.91333008 54.62329102 C-70.68778681 53.64284256 -72.46110951 52.66033818 -74.2331543 51.67553711 C-75.01859619 51.24120361 -75.80403809 50.80687012 -76.61328125 50.359375 C-77.30591064 49.97491211 -77.99854004 49.59044922 -78.7121582 49.19433594 C-96.82172263 39.92268098 -150.10615712 91.09385588 -161.0625 102 Z M74.98828125 52.1640625 C73.87364502 52.76943848 72.75900879 53.37481445 71.6105957 53.99853516 C70.4069774 54.66553421 69.20344759 55.33269298 68 56 C66.75601982 56.67991276 65.51146372 57.35877277 64.26635742 58.03662109 C61.69059693 59.4402982 59.11775662 60.84912695 56.546875 62.26171875 C52.83377146 64.2990216 49.10721516 66.31046325 45.375 68.3125 C44.21830811 68.93302246 43.06161621 69.55354492 41.86987305 70.19287109 C40.20178589 71.0873999 40.20178589 71.0873999 38.5 72 C36.42264403 73.116196 34.34579251 74.23333152 32.26953125 75.3515625 C31.40561768 75.81643066 30.5417041 76.28129883 29.65161133 76.76025391 C25.64973169 78.94034055 21.66855547 81.15716796 17.6875 83.375 C17.26758182 91.36344354 16.94930772 99.34718204 16.75488091 107.34398174 C16.66147491 111.05925046 16.53530368 114.76690335 16.32958984 118.4777832 C14.88729561 134.34959302 14.88729561 134.34959302 19.36831665 148.94271851 C23.43790033 153.07938943 28.084011 155.70656034 33.298172 158.15837097 C37.39551327 160.24470836 40.96677463 163.04724089 44.625 165.8125 C45.87301392 166.71246704 45.87301392 166.71246704 47.14624023 167.63061523 C53.32010015 172.09481435 59.45161349 176.61521774 65.57958984 181.14208984 C71.67725151 185.64200189 77.79562657 190.11226168 83.96191406 194.51782227 C87.89530001 197.33165934 91.7750883 200.19549106 95.60546875 203.1484375 C96.4142749 203.76130615 97.22308105 204.3741748 98.05639648 205.00561523 C99.6090268 206.18381855 101.1496761 207.37803105 102.67602539 208.59008789 C103.37590576 209.11594482 104.07578613 209.64180176 104.796875 210.18359375 C105.40499023 210.65595459 106.01310547 211.12831543 106.63964844 211.61499023 C110.3653059 212.99767641 113.32516595 210.99115868 116.77270508 209.43190002 C119.22934202 208.28466951 121.66641067 207.10229744 124.1015625 205.91015625 C124.99362396 205.47618027 125.88568542 205.04220428 126.80477905 204.59507751 C128.68325881 203.67990727 130.56081594 202.76284109 132.4375 201.84399414 C135.30703595 200.4401731 138.18062832 199.04492344 141.0546875 197.65039062 C142.88306312 196.75832599 144.71119652 195.86576469 146.5390625 194.97265625 C147.39641998 194.55693863 148.25377747 194.14122101 149.13711548 193.71290588 C149.93829803 193.31917282 150.73948059 192.92543976 151.56494141 192.51977539 C152.26632233 192.17717178 152.96770325 191.83456818 153.69033813 191.48158264 C158.30441043 188.97728129 158.30441043 188.97728129 160.75143433 184.42837524 C161.01505768 183.22434052 161.27868103 182.02030579 161.55029297 180.77978516 C161.70039322 180.11438217 161.85049347 179.44897919 162.00514221 178.76341248 C162.49604553 176.56682841 162.96348583 174.3660109 163.4296875 172.1640625 C163.76409441 170.63311886 164.09948671 169.10239015 164.43582153 167.5718689 C165.1368324 164.36450188 165.826355 161.15493591 166.5078125 157.94335938 C167.381355 153.83066312 168.28224607 149.72454516 169.19174004 145.61966896 C169.88881768 142.4598079 170.57168585 139.29700645 171.25027847 136.13312912 C171.57694889 134.61797025 171.90791917 133.10373175 172.24328232 131.59047318 C172.71028094 129.47276061 173.15808293 127.35184959 173.60107422 125.22900391 C173.98934891 123.42056503 173.98934891 123.42056503 174.38546753 121.57559204 C174.78981082 117.29082786 173.796453 114.8051232 171.19458008 111.44970703 C170.62118896 110.85013184 170.04779785 110.25055664 169.45703125 109.6328125 C168.49893555 108.62154297 168.49893555 108.62154297 167.52148438 107.58984375 C166.85439453 106.90019531 166.18730469 106.21054688 165.5 105.5 C164.85224609 104.81808594 164.20449219 104.13617188 163.53710938 103.43359375 C144.99997874 83.98905112 111.5825734 52.13128552 83.34106445 49.12524414 C80.00663369 49.43908375 77.92205319 50.55182464 74.98828125 52.1640625 Z M-170.23046875 222.0625 C-170.97941406 222.825625 -171.72835937 223.58875 -172.5 224.375 C-173.23605469 225.1175 -173.97210938 225.86 -174.73046875 226.625 C-176.75566408 228.78194026 -178.71278345 230.96301924 -180.65234375 233.1953125 C-184.23053766 237.31141746 -187.93973325 241.28857461 -191.6875 245.25 C-196.51824511 250.3783124 -201.31759306 255.5230616 -205.97265625 260.8125 C-207.85382123 262.872674 -209.77015736 264.8456891 -211.74609375 266.8125 C-212.64497314 267.72684814 -212.64497314 267.72684814 -213.56201172 268.65966797 C-214.74158135 269.85702804 -215.93664512 271.03938338 -217.14892578 272.20361328 C-220.09327374 275.22528223 -221.22678097 276.7517097 -221.81640625 281.0390625 C-221.69870856 282.48933454 -221.52449881 283.93548681 -221.3125 285.375 C-221.11684448 286.7355249 -221.11684448 286.7355249 -220.91723633 288.12353516 C-220.40306082 291.30539842 -219.80998422 294.46256614 -219.1875 297.625 C-218.9615918 298.77379639 -218.73568359 299.92259277 -218.50292969 301.10620117 C-213.61755766 325.16047651 -204.84525261 347.71749422 -192.63696289 369.03051758 C-191.65768791 370.76396968 -190.74143426 372.53336532 -189.86108398 374.3190918 C-186.91371177 379.96465968 -186.91371177 379.96465968 -181.80273438 383.40332031 C-178.70340144 383.85821894 -175.75761243 383.95094966 -172.625 383.9375 C-170.22915202 384.01910222 -167.83331948 384.10115899 -165.4375 384.18359375 C-164.14457031 384.20921387 -162.85164063 384.23483398 -161.51953125 384.26123047 C-156.94332947 384.36480314 -152.3808175 384.62973609 -147.8125 384.91015625 C-147.0086235 384.95908524 -146.20474701 385.00801422 -145.37651062 385.0584259 C-143.75851019 385.15711306 -142.14052405 385.25603474 -140.52255249 385.35519409 C-136.68894501 385.58673397 -132.85456025 385.80129225 -129.01953125 386.0078125 C-127.7250708 386.07887207 -126.43061035 386.14993164 -125.09692383 386.22314453 C-123.22363403 386.29831299 -123.22363403 386.29831299 -121.3125 386.375 C-120.59830399 386.40582169 -119.88410797 386.43664337 -119.14826965 386.46839905 C-114.56172231 386.63169517 -114.56172231 386.63169517 -110.66015625 384.35546875 C-109.90605469 383.43378906 -109.15195313 382.51210938 -108.375 381.5625 C-107.529375 380.55316406 -106.68375 379.54382813 -105.8125 378.50390625 C-104.97806177 377.46182127 -104.14469545 376.41887691 -103.3125 375.375 C-102.19875 374.02728516 -102.19875 374.02728516 -101.0625 372.65234375 C-99.59443951 370.87232041 -98.13749931 369.08307159 -96.69140625 367.28515625 C-94.93514155 365.13668794 -93.15906112 363.02740997 -91.33984375 360.93359375 C-90.83702881 360.35206543 -90.33421387 359.77053711 -89.81616211 359.17138672 C-88.83431487 358.03920957 -87.84706206 356.91169144 -86.85375977 355.78955078 C-84.47126541 353.03195858 -82.80353776 351.00831002 -82.3125 347.375 C-82.72567383 345.18200834 -82.72567383 345.18200834 -83.58154297 342.90917969 C-83.88772552 342.02164001 -84.19390808 341.13410034 -84.5093689 340.21966553 C-84.85432404 339.25514465 -85.19927917 338.29062378 -85.5546875 337.296875 C-85.90987457 336.27740784 -86.26506165 335.25794067 -86.63101196 334.20758057 C-87.80622465 330.84301772 -88.99664045 327.48405339 -90.1875 324.125 C-91.00409303 321.79847098 -91.81983899 319.47164449 -92.63476562 317.14453125 C-94.756131 311.09566809 -96.89083157 305.05159661 -99.02868652 299.00854492 C-100.70036124 294.27724612 -102.36329557 289.54289955 -104.02590942 284.80841064 C-105.95073778 279.32918368 -107.88109466 273.85191145 -109.8125 268.375 C-110.17857361 267.33581421 -110.54464722 266.29662842 -110.92181396 265.22595215 C-111.95536707 262.29542288 -112.99263942 259.36624007 -114.03125 256.4375 C-114.33568024 255.57320374 -114.64011047 254.70890747 -114.95376587 253.81842041 C-115.2365036 253.02369324 -115.51924133 252.22896606 -115.81054688 251.41015625 C-116.17545227 250.37967163 -116.17545227 250.37967163 -116.54772949 249.32836914 C-118.61208422 244.05561505 -120.25635464 242.53510845 -125.47265625 239.984375 C-126.09049484 239.67828812 -126.70833344 239.37220123 -127.34489441 239.05683899 C-129.34932098 238.06762945 -131.36170955 237.09602419 -133.375 236.125 C-134.74684776 235.45326695 -136.11826696 234.78065798 -137.48925781 234.10717773 C-140.82657525 232.47201874 -144.17088288 230.85189607 -147.519104 229.23919678 C-149.13420428 228.46091665 -150.74762795 227.67915949 -152.36083984 226.89697266 C-154.75786214 225.73621163 -157.15818206 224.58305964 -159.5625 223.4375 C-160.23933838 223.11426758 -160.91617676 222.79103516 -161.61352539 222.45800781 C-166.11272815 220.0047586 -166.11272815 220.0047586 -170.23046875 222.0625 Z M163.57080078 222.27099609 C162.74629425 222.6849765 161.92178772 223.09895691 161.07229614 223.52548218 C160.18476654 223.97855743 159.29723694 224.43163269 158.3828125 224.8984375 C157.00861649 225.59049789 157.00861649 225.59049789 155.60665894 226.29653931 C152.67239014 227.77539629 149.74229095 229.26229432 146.8125 230.75 C143.88918942 232.22920766 140.96503005 233.70669978 138.0397644 235.18203735 C136.21874741 236.1010058 134.39897242 237.02244055 132.58059692 237.94662476 C131.74978607 238.36690948 130.91897522 238.78719421 130.06298828 239.22021484 C129.33701447 239.58883636 128.61104065 239.95745789 127.86306763 240.33724976 C125.6875 241.375 125.6875 241.375 123.06758118 242.16123962 C119.76979968 243.84299592 119.42181091 245.48777653 118.23071289 248.94995117 C117.81536285 250.12653793 117.40001282 251.30312469 116.97207642 252.5153656 C116.53446435 253.81613063 116.09716687 255.11700153 115.66015625 256.41796875 C115.19088397 257.76806226 114.71984969 259.11754446 114.24716187 260.46644592 C112.98649658 264.07850905 111.74888565 267.69807306 110.51588058 271.31965637 C109.24256858 275.04848795 107.95018126 278.77068229 106.65844727 282.49316406 C105.11479717 286.94372878 103.57215755 291.39460638 102.03825378 295.84854126 C99.11397722 304.33106147 96.11559776 312.77962314 92.9921875 321.19140625 C92.65193039 322.11241623 92.31167328 323.03342621 91.96110535 323.98234558 C90.72018427 327.33847961 89.47922711 330.69416955 88.20657349 334.03842163 C87.37190664 336.23407172 86.55710317 338.43615158 85.74609375 340.640625 C85.29548584 341.83461914 84.84487793 343.02861328 84.38061523 344.25878906 C83.58458953 347.83768027 83.92016828 349.21835689 85.6875 352.375 C87.53479024 354.72575599 87.53479024 354.72575599 89.75 357 C93.79186928 361.36470229 97.59322381 365.85828347 101.3359375 370.48046875 C103.94845295 373.6962062 106.59446929 376.88228591 109.25 380.0625 C109.69206787 380.59214355 110.13413574 381.12178711 110.58959961 381.66748047 C111.62181282 382.90367134 112.65459087 384.13939054 113.6875 385.375 C121.81311717 383.9131733 129.92914712 382.40081403 138.0425415 380.87280273 C139.92682189 380.51816582 141.81123584 380.16423826 143.69573975 379.81079102 C150.52766621 378.52866628 157.35660165 377.23183935 164.18295288 375.92034912 C166.52122121 375.47308559 168.86027998 375.029935 171.20010376 374.59088135 C174.53145443 373.96484189 177.85964026 373.32399102 181.1875 372.6796875 C182.70932137 372.3985611 182.70932137 372.3985611 184.2618866 372.11175537 C185.19640152 371.92776184 186.13091644 371.74376831 187.09375 371.55419922 C187.91166016 371.39829315 188.72957031 371.24238708 189.57226562 371.08175659 C196.19467297 368.86903251 199.06967871 359.66241448 201.9921875 353.9375 C212.88906868 331.87815057 224.44095439 302.47295158 222.6875 277.375 C221.5056943 275.27420251 221.5056943 275.27420251 219.625 273.875 C217.10807367 271.63773215 214.79942822 269.448813 212.625 266.875 C209.1263807 262.81565391 205.47736713 258.90848127 201.8125 255 C197.14682724 250.02222372 192.52784167 245.01192413 187.984375 239.921875 C186.19606333 237.93891717 184.39454696 235.97261649 182.578125 234.015625 C181.76722412 233.14188232 181.76722412 233.14188232 180.93994141 232.25048828 C179.88138341 231.1118953 178.82124471 229.97476918 177.75927734 228.83935547 C175.70476859 226.62927448 173.75320241 224.46908092 172.0234375 221.9921875 C171.58257812 221.45851562 171.14171875 220.92484375 170.6875 220.375 C167.50776899 220.375 166.34697186 220.86436518 163.57080078 222.27099609 Z M-67.12353706 381.54125404 C-68.87415544 384.24124516 -70.91564851 386.61303733 -73 389.0625 C-73.68964844 389.93261719 -74.37929687 390.80273438 -75.08984375 391.69921875 C-76.74011035 393.68591931 -78.38535118 395.49975829 -80.19140625 397.33203125 C-80.66940674 397.83968018 -81.14740723 398.3473291 -81.63989258 398.87036133 C-82.98185933 400.28970938 -84.35720826 401.67727965 -85.734375 403.0625 C-87.55437312 406.88269408 -87.31126306 407.45754972 -86.14599609 411.33569336 C-85.85640015 412.31472626 -85.5668042 413.29375916 -85.26843262 414.30245972 C-84.95297485 415.31639801 -84.63751709 416.3303363 -84.3125 417.375 C-84.01927856 418.33117218 -83.72605713 419.28734436 -83.4239502 420.27249146 C-82.48454535 423.29279906 -81.52281891 426.30518891 -80.5546875 429.31640625 C-80.2061673 430.40590073 -79.85764709 431.4953952 -79.49856567 432.61790466 C-78.76857164 434.89805889 -78.03742792 437.17784534 -77.30517578 439.45727539 C-76.18086027 442.95817482 -75.06087968 446.46044022 -73.94140625 449.96289062 C-73.2294209 452.18497731 -72.51719023 454.40698541 -71.8046875 456.62890625 C-71.46927948 457.67776505 -71.13387146 458.72662384 -70.78829956 459.80726624 C-70.47772614 460.77264816 -70.16715271 461.73803009 -69.84716797 462.73266602 C-69.57419891 463.58329117 -69.30122986 464.43391632 -69.01998901 465.31031799 C-68.35436932 467.40220141 -68.35436932 467.40220141 -67.3125 469.375 C-32.47948138 482.52122269 7.56177385 482.88536631 43.71166992 475.9206543 C46.6875 475.375 46.6875 475.375 49.6262207 475.12036133 C52.85086312 474.65969813 54.9079352 474.09681601 57.6875 472.375 C61.16710297 467.54308965 63.34329583 462.28612148 65.625 456.8125 C66.30027789 455.27537095 66.97951848 453.73997701 67.66259766 452.20629883 C69.03919074 449.1031614 70.39513411 445.99227004 71.73486328 442.87304688 C74.53853708 436.37134175 77.55971093 429.97411127 80.5625 423.5625 C81.52102967 421.49478551 82.47699649 419.42587986 83.4296875 417.35546875 C83.8201123 416.50879639 84.21053711 415.66212402 84.61279297 414.78979492 C86.88249169 410.23897498 86.88249169 410.23897498 87.5625 405.34765625 C86.37382964 402.66784137 84.70449902 400.93805278 82.6875 398.8125 C79.46174968 395.33275359 76.35715927 391.81589914 73.375 388.125 C72.29467247 386.84407722 72.29467247 386.84407722 71.19252014 385.53727722 C69.42312218 383.38776593 67.93467966 381.1963315 66.49119568 378.81758118 C63.27741668 373.89670169 59.92565411 369.43209801 54.16008377 367.54992294 C46.66290509 366.18560192 39.06411983 366.38736742 31.47265625 366.48046875 C29.00986031 366.4684785 26.54708093 366.4524851 24.08433533 366.43269348 C18.93656916 366.40762123 13.79221163 366.4333216 8.64477539 366.49487305 C2.074233 366.56902853 -4.48756842 366.51274437 -11.05757809 366.41765881 C-16.13967857 366.35931216 -21.21972743 366.37257737 -26.30197334 366.40670204 C-28.72230145 366.41414679 -31.14281137 366.39936184 -33.56284904 366.36113548 C-49.42301161 366.15913973 -58.35714222 367.65966753 -67.12353706 381.54125404 Z " fill="#FFFFFF" transform="translate(255.3125,-0.375)"/>
</svg>
