<svg xmlns="http://www.w3.org/2000/svg" xmlns:xlink="http://www.w3.org/1999/xlink" width="600" zoomAndPan="magnify" viewBox="0 0 450 112.499997" height="150" preserveAspectRatio="xMidYMid meet" version="1.0"><defs><g/><clipPath id="8d0dd0db10"><path d="M 0.996094 9 L 449.003906 9 L 449.003906 112.003906 L 0.996094 112.003906 Z M 0.996094 9 " clip-rule="nonzero"/></clipPath><clipPath id="740c8d514a"><path d="M 389 2.199219 L 449 2.199219 L 449 91.703125 L 389 91.703125 Z M 389 2.199219 " clip-rule="nonzero"/></clipPath><clipPath id="c702723795"><rect x="0" width="450" y="0" height="104"/></clipPath></defs><g clip-path="url(#8d0dd0db10)"><g transform="matrix(1, 0, 0, 1, 0, 9)"><g clip-path="url(#c702723795)"><g fill="#ffffff" fill-opacity="1"><g transform="translate(0.995582, 84.080045)"><g><path d="M 2.328125 -74.25 L 28.3125 -74.25 C 28.613281 -74.25 28.765625 -74.09375 28.765625 -73.78125 L 28.765625 -63.578125 C 28.765625 -63.265625 28.613281 -63.109375 28.3125 -63.109375 L 21.34375 -63.109375 L 21.34375 -0.46875 C 21.34375 -0.15625 21.191406 0 20.890625 0 L 9.75 0 C 9.4375 0 9.28125 -0.15625 9.28125 -0.46875 L 9.28125 -63.109375 L 2.328125 -63.109375 C 2.015625 -63.109375 1.859375 -63.265625 1.859375 -63.578125 L 1.859375 -73.78125 C 1.859375 -74.09375 2.015625 -74.25 2.328125 -74.25 Z M 2.328125 -74.25 "/></g></g></g><g fill="#ffffff" fill-opacity="1"><g transform="translate(31.625922, 84.080045)"><g><path d="M 19.953125 -74.25 L 31.09375 -74.25 C 31.40625 -74.25 31.5625 -74.09375 31.5625 -73.78125 L 31.5625 -0.46875 C 31.5625 -0.15625 31.40625 0 31.09375 0 L 19.953125 0 C 19.640625 0 19.484375 -0.15625 19.484375 -0.46875 L 19.484375 -31.5625 L 13.921875 -31.5625 L 13.921875 -0.46875 C 13.921875 -0.15625 13.765625 0 13.453125 0 L 2.328125 0 C 2.015625 0 1.859375 -0.15625 1.859375 -0.46875 L 1.859375 -73.78125 C 1.859375 -74.09375 2.015625 -74.25 2.328125 -74.25 L 13.453125 -74.25 C 13.765625 -74.25 13.921875 -74.09375 13.921875 -73.78125 L 13.921875 -42.6875 L 19.484375 -42.6875 L 19.484375 -73.78125 C 19.484375 -74.09375 19.640625 -74.25 19.953125 -74.25 Z M 19.953125 -74.25 "/></g></g></g><g fill="#ffffff" fill-opacity="1"><g transform="translate(65.040853, 84.080045)"><g><path d="M 22.734375 -31.5625 L 13.921875 -31.5625 L 13.921875 -11.140625 L 25.53125 -11.140625 C 25.832031 -11.140625 25.984375 -10.984375 25.984375 -10.671875 L 25.984375 -0.46875 C 25.984375 -0.15625 25.832031 0 25.53125 0 L 2.328125 0 C 2.015625 0 1.859375 -0.15625 1.859375 -0.46875 L 1.859375 -73.78125 C 1.859375 -74.09375 2.015625 -74.25 2.328125 -74.25 L 24.59375 -74.25 C 24.90625 -74.25 25.0625 -74.09375 25.0625 -73.78125 L 25.0625 -63.578125 C 25.0625 -63.265625 24.90625 -63.109375 24.59375 -63.109375 L 13.921875 -63.109375 L 13.921875 -42.6875 L 22.734375 -42.6875 C 23.046875 -42.6875 23.203125 -42.535156 23.203125 -42.234375 L 23.203125 -32.015625 C 23.203125 -31.710938 23.046875 -31.5625 22.734375 -31.5625 Z M 22.734375 -31.5625 "/></g></g></g><g fill="#ffffff" fill-opacity="1"><g transform="translate(92.886629, 84.080045)"><g><path d="M 2.328125 -74.25 L 24.59375 -74.25 C 24.90625 -74.25 25.0625 -74.09375 25.0625 -73.78125 L 25.0625 -63.578125 C 25.0625 -63.265625 24.90625 -63.109375 24.59375 -63.109375 L 13.921875 -63.109375 L 13.921875 -42.6875 L 22.734375 -42.6875 C 23.046875 -42.6875 23.203125 -42.535156 23.203125 -42.234375 L 23.203125 -32.015625 C 23.203125 -31.710938 23.046875 -31.5625 22.734375 -31.5625 L 13.921875 -31.5625 L 13.921875 -0.46875 C 13.921875 -0.15625 13.765625 0 13.453125 0 L 2.328125 0 C 2.015625 0 1.859375 -0.15625 1.859375 -0.46875 L 1.859375 -73.78125 C 1.859375 -74.09375 2.015625 -74.25 2.328125 -74.25 Z M 2.328125 -74.25 "/></g></g></g><g fill="#ffffff" fill-opacity="1"><g transform="translate(119.804216, 84.080045)"><g><path d="M 13.453125 0 L 2.328125 0 C 2.015625 0 1.859375 -0.15625 1.859375 -0.46875 L 1.859375 -73.78125 C 1.859375 -74.09375 2.015625 -74.25 2.328125 -74.25 L 13.453125 -74.25 C 13.765625 -74.25 13.921875 -74.09375 13.921875 -73.78125 L 13.921875 -0.46875 C 13.921875 -0.15625 13.765625 0 13.453125 0 Z M 13.453125 0 "/></g></g></g><g fill="#ffffff" fill-opacity="1"><g transform="translate(135.583493, 84.080045)"><g><path d="M 13.453125 0 L 2.328125 0 C 2.015625 0 1.859375 -0.15625 1.859375 -0.46875 L 1.859375 -73.78125 C 1.859375 -74.09375 2.015625 -74.25 2.328125 -74.25 L 13.453125 -74.25 C 13.703125 -74.25 13.890625 -74.09375 14.015625 -73.78125 L 20.421875 -42.6875 L 22.28125 -42.6875 L 22.28125 -73.78125 C 22.28125 -74.09375 22.429688 -74.25 22.734375 -74.25 L 34.8125 -74.25 C 35.113281 -74.25 35.265625 -74.09375 35.265625 -73.78125 L 35.265625 -0.46875 C 35.265625 -0.15625 35.113281 0 34.8125 0 L 24.03125 0 C 23.789062 0 23.609375 -0.15625 23.484375 -0.46875 L 15.78125 -35.265625 L 13.921875 -35.265625 L 13.921875 -0.46875 C 13.921875 -0.15625 13.765625 0 13.453125 0 Z M 13.453125 0 "/></g></g></g><g fill="#ffffff" fill-opacity="1"><g transform="translate(172.711176, 84.080045)"><g><path d="M 29.328125 -73.78125 L 33.40625 -0.46875 C 33.40625 -0.15625 33.253906 0 32.953125 0 L 21.8125 0 C 21.5 0 21.34375 -0.15625 21.34375 -0.46875 L 20.421875 -19.03125 L 13.921875 -19.03125 L 13 -0.46875 C 13 -0.15625 12.84375 0 12.53125 0 L 1.390625 0 C 1.078125 0 0.921875 -0.15625 0.921875 -0.46875 L 5.015625 -73.78125 C 5.015625 -74.09375 5.164062 -74.25 5.46875 -74.25 L 28.859375 -74.25 C 29.171875 -74.25 29.328125 -74.09375 29.328125 -73.78125 Z M 16.25 -63.109375 L 14.578125 -30.171875 L 19.765625 -30.171875 L 18.09375 -63.109375 Z M 16.25 -63.109375 "/></g></g><g transform="translate(207.054293, 84.080045)"><g><path d="M 24.59375 0 L 2.328125 0 C 2.015625 0 1.859375 -0.15625 1.859375 -0.46875 L 1.859375 -73.78125 C 1.859375 -74.09375 2.015625 -74.25 2.328125 -74.25 L 13.453125 -74.25 C 13.765625 -74.25 13.921875 -74.09375 13.921875 -73.78125 L 13.921875 -11.140625 L 24.59375 -11.140625 C 24.90625 -11.140625 25.0625 -10.984375 25.0625 -10.671875 L 25.0625 -0.46875 C 25.0625 -0.15625 24.90625 0 24.59375 0 Z M 24.59375 0 "/></g></g></g><g fill="#ffffff" fill-opacity="1"><g transform="translate(233.971882, 84.080045)"><g><path d="M 22.28125 -74.25 C 25.988281 -74.25 28.460938 -72.929688 29.703125 -70.296875 C 30.941406 -67.671875 31.5625 -64.039062 31.5625 -59.40625 L 31.5625 -45.390625 C 31.5625 -40.742188 30.941406 -37.101562 29.703125 -34.46875 C 28.460938 -31.84375 25.988281 -30.53125 22.28125 -30.53125 L 13.921875 -30.53125 L 13.921875 -0.46875 C 13.921875 -0.15625 13.765625 0 13.453125 0 L 2.328125 0 C 2.015625 0 1.859375 -0.15625 1.859375 -0.46875 L 1.859375 -73.78125 C 1.859375 -74.09375 2.015625 -74.25 2.328125 -74.25 Z M 19.484375 -41.671875 L 19.484375 -63.109375 L 13.921875 -63.109375 L 13.921875 -41.671875 Z M 19.484375 -41.671875 "/></g></g></g><g fill="#ffffff" fill-opacity="1"><g transform="translate(267.386813, 84.080045)"><g><path d="M 24.59375 0 L 2.328125 0 C 2.015625 0 1.859375 -0.15625 1.859375 -0.46875 L 1.859375 -73.78125 C 1.859375 -74.09375 2.015625 -74.25 2.328125 -74.25 L 13.453125 -74.25 C 13.765625 -74.25 13.921875 -74.09375 13.921875 -73.78125 L 13.921875 -11.140625 L 24.59375 -11.140625 C 24.90625 -11.140625 25.0625 -10.984375 25.0625 -10.671875 L 25.0625 -0.46875 C 25.0625 -0.15625 24.90625 0 24.59375 0 Z M 24.59375 0 "/></g></g></g><g fill="#ffffff" fill-opacity="1"><g transform="translate(294.3044, 84.080045)"><g><path d="M 29.328125 -73.78125 L 33.40625 -0.46875 C 33.40625 -0.15625 33.253906 0 32.953125 0 L 21.8125 0 C 21.5 0 21.34375 -0.15625 21.34375 -0.46875 L 20.421875 -19.03125 L 13.921875 -19.03125 L 13 -0.46875 C 13 -0.15625 12.84375 0 12.53125 0 L 1.390625 0 C 1.078125 0 0.921875 -0.15625 0.921875 -0.46875 L 5.015625 -73.78125 C 5.015625 -74.09375 5.164062 -74.25 5.46875 -74.25 L 28.859375 -74.25 C 29.171875 -74.25 29.328125 -74.09375 29.328125 -73.78125 Z M 16.25 -63.109375 L 14.578125 -30.171875 L 19.765625 -30.171875 L 18.09375 -63.109375 Z M 16.25 -63.109375 "/></g></g></g><g fill="#ffffff" fill-opacity="1"><g transform="translate(324.934741, 84.080045)"><g><path d="M 12.90625 -23.203125 L 0.921875 -73.6875 C 0.859375 -74.0625 1.015625 -74.25 1.390625 -74.25 L 12.34375 -74.25 C 12.59375 -74.25 12.78125 -74.09375 12.90625 -73.78125 L 17.8125 -49 L 19.671875 -49 L 24.59375 -73.78125 C 24.71875 -74.09375 24.90625 -74.25 25.15625 -74.25 L 36.109375 -74.25 C 36.535156 -74.25 36.6875 -74.0625 36.5625 -73.6875 L 24.59375 -23.203125 L 24.59375 -0.46875 C 24.59375 -0.15625 24.4375 0 24.125 0 L 13.359375 0 C 13.054688 0 12.90625 -0.15625 12.90625 -0.46875 Z M 12.90625 -23.203125 "/></g></g></g><g clip-path="url(#740c8d514a)"><path fill="#ffffff" d="M 448.195312 12.492188 L 439.269531 5.484375 L 439.050781 5.359375 C 438.980469 5.320312 438.902344 5.289062 438.820312 5.265625 L 438.621094 5.265625 L 428.457031 2.390625 C 427.941406 2.261719 427.484375 2.371094 427.078125 2.714844 L 405.421875 21.664062 L 399.699219 26.675781 C 399.636719 26.71875 399.578125 26.769531 399.53125 26.832031 L 395.769531 30.234375 C 394.109375 31.519531 392.742188 33.066406 391.671875 34.875 C 390.050781 37.535156 389.242188 40.421875 389.242188 43.539062 C 389.308594 45.269531 389.675781 46.933594 390.347656 48.53125 C 391.019531 50.132812 391.949219 51.558594 393.140625 52.820312 C 389.582031 63.042969 385.996094 79.117188 394.84375 87.144531 C 398.414062 90.40625 401.957031 92.109375 404.664062 92.109375 C 406.09375 92.136719 407.34375 91.671875 408.410156 90.71875 C 412.246094 87.238281 410.714844 78.914062 404.773438 70.917969 C 401.75 66.957031 399.78125 62.527344 398.863281 57.628906 C 403.90625 60.628906 409.339844 62.464844 415.167969 63.136719 C 415.992188 63.503906 416.839844 63.804688 417.710938 64.035156 C 418.582031 64.265625 419.46875 64.425781 420.363281 64.511719 C 421.261719 64.601562 422.160156 64.617188 423.058594 64.5625 C 423.960938 64.503906 424.847656 64.375 425.726562 64.175781 C 426.609375 63.976562 427.464844 63.707031 428.300781 63.367188 C 429.136719 63.027344 429.941406 62.625 430.710938 62.15625 C 431.480469 61.691406 432.207031 61.164062 432.894531 60.578125 C 433.582031 59.992188 434.214844 59.355469 434.796875 58.667969 C 435.378906 57.980469 435.90625 57.25 436.371094 56.476562 C 436.835938 55.703125 437.234375 54.902344 437.570312 54.0625 C 437.90625 53.226562 438.171875 52.367188 438.371094 51.488281 C 438.566406 50.609375 438.691406 49.71875 438.746094 48.820312 C 438.796875 47.917969 438.777344 47.019531 438.6875 46.121094 C 438.597656 45.226562 438.433594 44.34375 438.199219 43.472656 C 437.964844 42.601562 437.664062 41.753906 437.292969 40.933594 C 436.921875 40.109375 436.488281 39.324219 435.988281 38.570312 L 448.675781 14.363281 C 448.824219 14.035156 448.851562 13.691406 448.761719 13.34375 C 448.671875 12.992188 448.484375 12.707031 448.195312 12.492188 Z M 428.441406 5.484375 L 435.632812 7.433594 L 419.699219 25.347656 L 409.304688 22.253906 Z M 402.375 72.710938 C 408.269531 80.632812 408.253906 86.820312 406.398438 88.503906 C 404.542969 90.191406 400.921875 88.628906 396.792969 84.886719 C 389.582031 78.375 392.320312 64.667969 395.460938 55.140625 L 395.585938 55.246094 C 395.871094 58.417969 396.589844 61.492188 397.746094 64.460938 C 398.898438 67.429688 400.445312 70.179688 402.375 72.710938 Z M 398.476562 53.714844 C 398.300781 50.664062 398.671875 47.675781 399.589844 44.757812 C 399.644531 44.410156 399.582031 44.082031 399.414062 43.777344 C 399.242188 43.46875 398.992188 43.246094 398.667969 43.105469 C 398.34375 42.96875 398.011719 42.945312 397.671875 43.03125 C 397.332031 43.121094 397.054688 43.304688 396.839844 43.582031 C 396.683594 43.910156 395.585938 46.152344 394.285156 49.507812 C 392.929688 47.707031 392.222656 45.683594 392.167969 43.429688 C 392.171875 42.367188 392.296875 41.320312 392.542969 40.289062 C 392.789062 39.257812 393.148438 38.265625 393.617188 37.316406 C 394.089844 36.363281 394.664062 35.480469 395.335938 34.660156 C 396.011719 33.839844 396.769531 33.109375 397.613281 32.460938 L 400.859375 29.617188 L 412.214844 33.746094 L 411.503906 34.550781 C 411.050781 34.902344 410.621094 35.277344 410.210938 35.671875 C 409.796875 36.070312 409.410156 36.484375 409.039062 36.921875 C 408.671875 37.359375 408.324219 37.8125 408.003906 38.285156 C 407.679688 38.753906 407.382812 39.242188 407.109375 39.742188 C 406.835938 40.246094 406.589844 40.761719 406.371094 41.289062 C 406.152344 41.816406 405.957031 42.351562 405.792969 42.898438 C 405.628906 43.445312 405.492188 44 405.382812 44.5625 C 405.277344 45.125 405.195312 45.6875 405.144531 46.257812 C 405.097656 46.828125 405.074219 47.398438 405.082031 47.96875 C 405.089844 48.539062 405.128906 49.109375 405.195312 49.675781 C 405.261719 50.242188 405.355469 50.804688 405.480469 51.363281 C 405.605469 51.921875 405.757812 52.472656 405.9375 53.015625 C 406.117188 53.554688 406.324219 54.089844 406.558594 54.609375 C 406.796875 55.128906 407.054688 55.636719 407.34375 56.132812 C 407.628906 56.625 407.941406 57.105469 408.277344 57.566406 C 408.613281 58.027344 408.972656 58.472656 409.351562 58.898438 C 405.410156 57.832031 401.785156 56.105469 398.476562 53.714844 Z M 398.476562 53.714844 " fill-opacity="1" fill-rule="nonzero"/></g></g></g></g></svg>