<svg xmlns="http://www.w3.org/2000/svg" xmlns:xlink="http://www.w3.org/1999/xlink" width="600" zoomAndPan="magnify" viewBox="0 0 450 225" height="300" preserveAspectRatio="xMidYMid meet" version="1.0"><defs><g/><clipPath id="33b637046c"><path d="M 176.683594 63 L 424 63 L 424 223.5 L 176.683594 223.5 Z M 176.683594 63 " clip-rule="nonzero"/></clipPath><clipPath id="16ad4bc830"><path d="M 176.683594 0 L 424 0 L 424 160 L 176.683594 160 Z M 176.683594 0 " clip-rule="nonzero"/></clipPath><clipPath id="ef8cf24d5f"><rect x="0" width="396" y="0" height="83"/></clipPath></defs><g clip-path="url(#33b637046c)"><path fill="#eb4545" d="M 419.867188 63.839844 L 391.960938 63.839844 C 391.699219 63.839844 391.441406 63.867188 391.183594 63.917969 C 390.929688 63.96875 390.679688 64.042969 390.4375 64.144531 C 390.195312 64.242188 389.964844 64.367188 389.746094 64.511719 C 389.53125 64.65625 389.328125 64.824219 389.144531 65.007812 C 388.957031 65.191406 388.792969 65.394531 388.648438 65.613281 C 388.503906 65.828125 388.378906 66.058594 388.28125 66.300781 C 388.179688 66.542969 388.105469 66.792969 388.050781 67.050781 C 388 67.304688 387.976562 67.566406 387.976562 67.828125 L 387.976562 135.597656 C 387.976562 136.773438 387.917969 137.945312 387.804688 139.117188 C 387.6875 140.285156 387.515625 141.445312 387.285156 142.597656 C 387.058594 143.75 386.773438 144.890625 386.429688 146.015625 C 386.089844 147.140625 385.695312 148.246094 385.246094 149.332031 C 384.796875 150.414062 384.292969 151.476562 383.738281 152.511719 C 383.183594 153.550781 382.582031 154.554688 381.929688 155.535156 C 381.277344 156.511719 380.578125 157.453125 379.832031 158.363281 C 379.085938 159.269531 378.296875 160.140625 377.46875 160.96875 C 376.636719 161.800781 375.765625 162.589844 374.859375 163.335938 C 373.949219 164.082031 373.007812 164.78125 372.03125 165.433594 C 371.054688 166.085938 370.046875 166.6875 369.007812 167.242188 C 367.972656 167.796875 366.914062 168.296875 365.828125 168.75 C 364.742188 169.199219 363.636719 169.59375 362.511719 169.933594 C 361.386719 170.277344 360.25 170.5625 359.097656 170.789062 C 357.945312 171.019531 356.78125 171.191406 355.613281 171.304688 C 354.445312 171.421875 353.269531 171.480469 352.097656 171.480469 L 240.46875 171.480469 L 240.46875 163.507812 C 240.46875 163.167969 240.425781 162.832031 240.339844 162.503906 C 240.253906 162.175781 240.125 161.863281 239.960938 161.566406 C 239.792969 161.269531 239.59375 161 239.355469 160.753906 C 239.121094 160.507812 238.859375 160.296875 238.570312 160.121094 C 238.28125 159.941406 237.972656 159.804688 237.648438 159.703125 C 237.320312 159.605469 236.988281 159.550781 236.648438 159.535156 C 236.3125 159.519531 235.976562 159.550781 235.644531 159.621094 C 235.3125 159.691406 234.992188 159.804688 234.691406 159.957031 L 178.875 187.863281 C 178.210938 188.207031 177.683594 188.695312 177.292969 189.332031 C 176.902344 189.972656 176.707031 190.664062 176.707031 191.414062 C 176.707031 192.160156 176.902344 192.855469 177.292969 193.492188 C 177.683594 194.128906 178.210938 194.621094 178.875 194.960938 L 234.691406 222.867188 C 235.253906 223.15625 235.851562 223.300781 236.484375 223.304688 C 237.246094 223.308594 237.949219 223.109375 238.597656 222.707031 C 239.179688 222.34375 239.640625 221.859375 239.972656 221.257812 C 240.304688 220.652344 240.472656 220.007812 240.46875 219.320312 L 240.46875 211.347656 L 356.082031 211.347656 C 357.191406 211.347656 358.300781 211.320312 359.410156 211.265625 C 360.515625 211.210938 361.621094 211.128906 362.726562 211.019531 C 363.828125 210.910156 364.929688 210.773438 366.027344 210.613281 C 367.125 210.449219 368.214844 210.261719 369.304688 210.042969 C 370.390625 209.828125 371.472656 209.585938 372.550781 209.316406 C 373.625 209.046875 374.695312 208.75 375.757812 208.425781 C 376.816406 208.105469 377.871094 207.757812 378.914062 207.382812 C 379.960938 207.011719 380.992188 206.609375 382.019531 206.1875 C 383.042969 205.761719 384.058594 205.3125 385.058594 204.839844 C 386.0625 204.363281 387.050781 203.867188 388.03125 203.34375 C 389.007812 202.820312 389.972656 202.273438 390.925781 201.703125 C 391.875 201.132812 392.8125 200.539062 393.734375 199.925781 C 394.65625 199.308594 395.5625 198.667969 396.453125 198.007812 C 397.347656 197.347656 398.21875 196.664062 399.078125 195.960938 C 399.933594 195.257812 400.773438 194.535156 401.597656 193.789062 C 402.417969 193.042969 403.222656 192.28125 404.003906 191.496094 C 404.789062 190.710938 405.554688 189.90625 406.300781 189.085938 C 407.042969 188.265625 407.769531 187.425781 408.472656 186.566406 C 409.175781 185.710938 409.859375 184.835938 410.519531 183.945312 C 411.179688 183.054688 411.816406 182.148438 412.433594 181.226562 C 413.050781 180.304688 413.644531 179.367188 414.214844 178.414062 C 414.785156 177.464844 415.332031 176.5 415.851562 175.519531 C 416.375 174.542969 416.875 173.550781 417.347656 172.550781 C 417.824219 171.546875 418.273438 170.53125 418.695312 169.507812 C 419.121094 168.484375 419.519531 167.449219 419.894531 166.40625 C 420.269531 165.359375 420.617188 164.308594 420.9375 163.246094 C 421.257812 162.183594 421.554688 161.117188 421.824219 160.039062 C 422.09375 158.964844 422.335938 157.882812 422.554688 156.792969 C 422.769531 155.707031 422.960938 154.613281 423.121094 153.515625 C 423.285156 152.421875 423.421875 151.320312 423.53125 150.214844 C 423.636719 149.113281 423.71875 148.007812 423.773438 146.898438 C 423.828125 145.789062 423.855469 144.683594 423.855469 143.574219 L 423.855469 67.828125 C 423.855469 67.566406 423.832031 67.304688 423.777344 67.050781 C 423.726562 66.792969 423.652344 66.542969 423.550781 66.300781 C 423.453125 66.058594 423.328125 65.828125 423.183594 65.613281 C 423.039062 65.394531 422.875 65.191406 422.6875 65.007812 C 422.503906 64.824219 422.300781 64.65625 422.082031 64.511719 C 421.867188 64.367188 421.636719 64.242188 421.394531 64.144531 C 421.152344 64.042969 420.902344 63.96875 420.648438 63.917969 C 420.390625 63.867188 420.128906 63.839844 419.867188 63.839844 Z M 419.867188 63.839844 " fill-opacity="1" fill-rule="nonzero"/></g><g clip-path="url(#16ad4bc830)"><path fill="#eb4545" d="M 421.664062 28.398438 L 365.851562 0.492188 C 365.546875 0.339844 365.230469 0.226562 364.898438 0.15625 C 364.566406 0.0820312 364.230469 0.0546875 363.890625 0.0703125 C 363.550781 0.0820312 363.21875 0.140625 362.890625 0.238281 C 362.566406 0.339844 362.261719 0.476562 361.96875 0.65625 C 361.679688 0.832031 361.417969 1.042969 361.183594 1.289062 C 360.949219 1.535156 360.746094 1.804688 360.578125 2.101562 C 360.414062 2.398438 360.289062 2.710938 360.199219 3.039062 C 360.113281 3.367188 360.070312 3.699219 360.070312 4.039062 L 360.070312 12.011719 L 244.457031 12.011719 C 243.347656 12.011719 242.238281 12.039062 241.132812 12.09375 C 240.023438 12.148438 238.917969 12.230469 237.8125 12.339844 C 236.710938 12.449219 235.609375 12.585938 234.511719 12.746094 C 233.414062 12.910156 232.324219 13.097656 231.234375 13.316406 C 230.148438 13.53125 229.066406 13.773438 227.988281 14.042969 C 226.914062 14.3125 225.84375 14.609375 224.785156 14.933594 C 223.722656 15.253906 222.667969 15.601562 221.625 15.976562 C 220.582031 16.347656 219.546875 16.75 218.519531 17.171875 C 217.496094 17.597656 216.484375 18.046875 215.480469 18.519531 C 214.476562 18.996094 213.488281 19.492188 212.507812 20.015625 C 211.53125 20.539062 210.566406 21.085938 209.613281 21.65625 C 208.664062 22.226562 207.726562 22.820312 206.804688 23.433594 C 205.882812 24.050781 204.976562 24.691406 204.085938 25.351562 C 203.195312 26.011719 202.320312 26.695312 201.460938 27.398438 C 200.605469 28.101562 199.765625 28.824219 198.941406 29.570312 C 198.121094 30.316406 197.316406 31.078125 196.535156 31.863281 C 195.75 32.648438 194.984375 33.453125 194.242188 34.273438 C 193.496094 35.09375 192.769531 35.933594 192.066406 36.792969 C 191.363281 37.648438 190.683594 38.523438 190.019531 39.414062 C 189.359375 40.304688 188.722656 41.210938 188.105469 42.132812 C 187.488281 43.054688 186.894531 43.992188 186.324219 44.945312 C 185.753906 45.894531 185.210938 46.859375 184.6875 47.839844 C 184.164062 48.816406 183.664062 49.808594 183.191406 50.808594 C 182.714844 51.8125 182.265625 52.828125 181.84375 53.851562 C 181.417969 54.875 181.019531 55.910156 180.644531 56.953125 C 180.273438 58 179.925781 59.050781 179.601562 60.113281 C 179.28125 61.175781 178.984375 62.242188 178.714844 63.320312 C 178.445312 64.394531 178.203125 65.476562 177.984375 66.566406 C 177.769531 67.652344 177.582031 68.746094 177.417969 69.84375 C 177.253906 70.9375 177.117188 72.039062 177.011719 73.144531 C 176.902344 74.246094 176.820312 75.351562 176.765625 76.460938 C 176.710938 77.570312 176.683594 78.675781 176.683594 79.785156 L 176.683594 155.53125 C 176.683594 155.792969 176.710938 156.054688 176.761719 156.308594 C 176.8125 156.566406 176.886719 156.816406 176.988281 157.058594 C 177.085938 157.300781 177.210938 157.53125 177.355469 157.746094 C 177.5 157.964844 177.667969 158.167969 177.851562 158.351562 C 178.035156 158.535156 178.238281 158.703125 178.457031 158.847656 C 178.671875 158.992188 178.902344 159.117188 179.144531 159.214844 C 179.386719 159.316406 179.636719 159.390625 179.894531 159.441406 C 180.148438 159.492188 180.410156 159.519531 180.671875 159.519531 L 208.578125 159.519531 C 208.839844 159.519531 209.097656 159.492188 209.355469 159.441406 C 209.613281 159.390625 209.859375 159.316406 210.101562 159.214844 C 210.34375 159.117188 210.574219 158.992188 210.792969 158.847656 C 211.007812 158.703125 211.210938 158.535156 211.394531 158.351562 C 211.582031 158.167969 211.746094 157.964844 211.890625 157.746094 C 212.039062 157.53125 212.160156 157.300781 212.261719 157.058594 C 212.359375 156.816406 212.4375 156.566406 212.488281 156.308594 C 212.539062 156.054688 212.5625 155.792969 212.5625 155.53125 L 212.5625 87.761719 C 212.5625 86.585938 212.621094 85.414062 212.738281 84.242188 C 212.851562 83.074219 213.023438 81.914062 213.253906 80.761719 C 213.480469 79.609375 213.765625 78.46875 214.109375 77.34375 C 214.449219 76.21875 214.84375 75.113281 215.292969 74.027344 C 215.746094 72.945312 216.246094 71.882812 216.800781 70.847656 C 217.355469 69.808594 217.957031 68.804688 218.609375 67.824219 C 219.261719 66.847656 219.960938 65.90625 220.707031 64.996094 C 221.453125 64.089844 222.242188 63.21875 223.074219 62.390625 C 223.902344 61.558594 224.773438 60.769531 225.679688 60.023438 C 226.589844 59.277344 227.53125 58.578125 228.507812 57.925781 C 229.488281 57.273438 230.492188 56.671875 231.53125 56.117188 C 232.566406 55.5625 233.628906 55.0625 234.710938 54.609375 C 235.796875 54.160156 236.902344 53.765625 238.027344 53.425781 C 239.152344 53.082031 240.292969 52.796875 241.445312 52.570312 C 242.597656 52.339844 243.757812 52.167969 244.925781 52.054688 C 246.097656 51.9375 247.269531 51.878906 248.445312 51.878906 L 360.070312 51.878906 L 360.070312 59.851562 C 360.066406 60.542969 360.234375 61.1875 360.566406 61.789062 C 360.902344 62.394531 361.359375 62.878906 361.941406 63.242188 C 362.589844 63.644531 363.292969 63.84375 364.054688 63.839844 C 364.6875 63.835938 365.285156 63.691406 365.851562 63.402344 L 421.664062 35.496094 C 422.328125 35.152344 422.855469 34.664062 423.246094 34.027344 C 423.636719 33.386719 423.832031 32.695312 423.832031 31.945312 C 423.832031 31.199219 423.636719 30.503906 423.246094 29.867188 C 422.855469 29.230469 422.328125 28.738281 421.664062 28.398438 Z M 421.664062 28.398438 " fill-opacity="1" fill-rule="nonzero"/></g><g transform="matrix(1, 0, 0, 1, 27, 70)"><g clip-path="url(#ef8cf24d5f)"><g fill="#ffffff" fill-opacity="1"><g transform="translate(0.246345, 65.163233)"><g><path d="M 39.703125 -43.859375 L 23.890625 -43.859375 L 23.890625 0 L 17.4375 0 L 17.4375 -43.859375 L 1.65625 -43.859375 L 1.65625 -49.203125 L 39.703125 -49.203125 Z M 39.703125 -43.859375 "/></g></g><g transform="translate(41.542811, 65.163233)"><g><path d="M 43.515625 0 L 37 0 L 37 -22.734375 L 12.203125 -22.734375 L 12.203125 0 L 5.703125 0 L 5.703125 -49.203125 L 12.203125 -49.203125 L 12.203125 -28.046875 L 37 -28.046875 L 37 -49.203125 L 43.515625 -49.203125 Z M 43.515625 0 "/></g></g><g transform="translate(90.882286, 65.163233)"><g><path d="M 33.515625 -22.734375 L 12.203125 -22.734375 L 12.203125 -5.3125 L 36.96875 -5.3125 L 36.96875 0 L 5.703125 0 L 5.703125 -49.203125 L 36.625 -49.203125 L 36.625 -43.859375 L 12.203125 -43.859375 L 12.203125 -28.046875 L 33.515625 -28.046875 Z M 33.515625 -22.734375 "/></g></g><g transform="translate(130.218691, 65.163233)"><g/></g><g transform="translate(147.35233, 65.163233)"><g><path d="M 23.75 -19.90625 L 12.203125 -19.90625 L 12.203125 0 L 5.671875 0 L 5.671875 -49.203125 L 21.96875 -49.203125 C 27.507812 -49.203125 31.769531 -47.9375 34.75 -45.40625 C 37.738281 -42.882812 39.234375 -39.21875 39.234375 -34.40625 C 39.234375 -31.332031 38.40625 -28.660156 36.75 -26.390625 C 35.09375 -24.117188 32.789062 -22.414062 29.84375 -21.28125 L 41.390625 -0.40625 L 41.390625 0 L 34.4375 0 Z M 12.203125 -25.203125 L 22.171875 -25.203125 C 25.390625 -25.203125 27.945312 -26.035156 29.84375 -27.703125 C 31.75 -29.367188 32.703125 -31.601562 32.703125 -34.40625 C 32.703125 -37.4375 31.796875 -39.765625 29.984375 -41.390625 C 28.171875 -43.015625 25.554688 -43.835938 22.140625 -43.859375 L 12.203125 -43.859375 Z M 12.203125 -25.203125 "/></g></g><g transform="translate(189.966768, 65.163233)"><g><path d="M 33.515625 -22.734375 L 12.203125 -22.734375 L 12.203125 -5.3125 L 36.96875 -5.3125 L 36.96875 0 L 5.703125 0 L 5.703125 -49.203125 L 36.625 -49.203125 L 36.625 -43.859375 L 12.203125 -43.859375 L 12.203125 -28.046875 L 33.515625 -28.046875 Z M 33.515625 -22.734375 "/></g></g><g transform="translate(229.303172, 65.163233)"><g><path d="M 12.203125 -19.265625 L 12.203125 0 L 5.703125 0 L 5.703125 -49.203125 L 23.859375 -49.203125 C 29.242188 -49.203125 33.460938 -47.828125 36.515625 -45.078125 C 39.566406 -42.328125 41.09375 -38.6875 41.09375 -34.15625 C 41.09375 -29.382812 39.597656 -25.707031 36.609375 -23.125 C 33.628906 -20.550781 29.351562 -19.265625 23.78125 -19.265625 Z M 12.203125 -24.5625 L 23.859375 -24.5625 C 27.328125 -24.5625 29.984375 -25.378906 31.828125 -27.015625 C 33.679688 -28.648438 34.609375 -31.007812 34.609375 -34.09375 C 34.609375 -37.019531 33.679688 -39.363281 31.828125 -41.125 C 29.984375 -42.882812 27.453125 -43.796875 24.234375 -43.859375 L 12.203125 -43.859375 Z M 12.203125 -24.5625 "/></g></g><g transform="translate(272.965229, 65.163233)"><g><path d="M 12.234375 -5.3125 L 35.546875 -5.3125 L 35.546875 0 L 5.703125 0 L 5.703125 -49.203125 L 12.234375 -49.203125 Z M 12.234375 -5.3125 "/></g></g></g><g fill="#ffffff" fill-opacity="1"><g transform="translate(310.848487, 65.163233)"><g><path d="M 32.875 -12.84375 L 12.265625 -12.84375 L 7.640625 0 L 0.953125 0 L 19.734375 -49.203125 L 25.40625 -49.203125 L 44.234375 0 L 37.578125 0 Z M 14.21875 -18.171875 L 30.953125 -18.171875 L 22.578125 -41.1875 Z M 14.21875 -18.171875 "/></g></g></g><g fill="#ffffff" fill-opacity="1"><g transform="translate(352.820836, 65.163233)"><g><path d="M 20.71875 -24.5 L 33.546875 -49.203125 L 40.921875 -49.203125 L 23.953125 -18.34375 L 23.953125 0 L 17.46875 0 L 17.46875 -18.34375 L 0.5 -49.203125 L 7.9375 -49.203125 Z M 20.71875 -24.5 "/></g></g></g></g></g></svg>