<?xml version="1.0" encoding="UTF-8"?>
<svg version="1.1" xmlns="http://www.w3.org/2000/svg" width="512" height="512">
<path d="M0 0 C0.90136185 -0.00860046 1.80272369 -0.01720093 2.73139954 -0.02606201 C3.72309143 -0.03032196 4.71478333 -0.03458191 5.73652649 -0.03897095 C6.77896011 -0.04714844 7.82139374 -0.05532593 8.89541626 -0.06375122 C12.35717693 -0.08863357 15.81889648 -0.10512958 19.28071594 -0.11953735 C21.05213424 -0.12752287 21.05213424 -0.12752287 22.85933876 -0.13566971 C29.11136349 -0.16241509 35.36336817 -0.18178458 41.61543274 -0.19619751 C48.07413904 -0.21283817 54.53233438 -0.25760788 60.99084759 -0.30856895 C65.95542996 -0.34222577 70.91989091 -0.35377338 75.8845768 -0.35942459 C78.26521008 -0.36614256 80.64583523 -0.38137862 83.02635765 -0.4053154 C86.36115989 -0.43693118 89.69458249 -0.43700825 93.02949524 -0.42959595 C94.50185135 -0.45420395 94.50185135 -0.45420395 96.00395203 -0.47930908 C102.53556724 -0.41995852 105.81359756 0.76652748 110.70649719 5.15390015 C112.34321594 7.8453064 112.34321594 7.8453064 113.39399719 10.71640015 C113.78329407 11.75796265 114.17259094 12.79952515 114.57368469 13.87265015 C114.94751282 14.95546265 115.32134094 16.03827515 115.70649719 17.15390015 C116.10095032 18.25733765 116.49540344 19.36077515 116.90180969 20.49765015 C119.70649719 28.57828826 119.70649719 28.57828826 119.70649719 32.15390015 C144.04357685 35.38434186 144.04357685 35.38434186 166.31489563 28.73348999 C171.94044188 23.2013229 175.17280992 16.02309793 178.3183136 8.89022827 C180.52732931 4.53591099 183.35174169 2.3312779 187.70649719 0.15390015 C189.24974582 0.05516706 190.79718783 0.01885526 192.34358215 0.01345825 C193.32160294 0.00774811 194.29962372 0.00203796 195.30728149 -0.00384521 C196.38455002 -0.00496307 197.46181854 -0.00608093 198.57173157 -0.00723267 C199.70378525 -0.01219757 200.83583893 -0.01716248 202.00219727 -0.02227783 C205.76822002 -0.03694381 209.53420049 -0.04371318 213.30024719 -0.04922485 C215.92227682 -0.05497809 218.54430645 -0.0607358 221.16633606 -0.0664978 C225.97551194 -0.07608111 230.78467875 -0.08196861 235.59386301 -0.08499455 C242.63065138 -0.08944749 249.66724281 -0.1068571 256.70397139 -0.13599515 C262.82496697 -0.16044375 268.94588309 -0.1679503 275.06692505 -0.1696701 C277.65335148 -0.17267471 280.23977753 -0.18062797 282.82617188 -0.19385529 C300.70821328 -0.27868553 317.66142682 0.475581 334.83149719 5.90390015 C335.65931702 6.16066528 336.48713684 6.41743042 337.34004211 6.68197632 C360.97825863 14.22995192 380.7184519 27.19108023 398.70649719 44.15390015 C399.71776672 45.08589233 399.71776672 45.08589233 400.74946594 46.03671265 C424.44196528 68.64153237 439.68362476 101.87736554 443.70649719 134.15390015 C443.81735657 134.98147827 443.92821594 135.8090564 444.04243469 136.66171265 C448.53215051 176.34109295 437.78177722 218.03528425 412.99946594 249.56600952 C409.13126821 254.3165303 404.9605336 258.74986246 400.70649719 263.15390015 C399.84411438 264.07944702 398.98173157 265.0049939 398.09321594 265.95858765 C375.40755829 289.68610513 342.23072416 305.37657665 309.70649719 309.15390015 C308.88278625 309.26347046 308.05907532 309.37304077 307.21040344 309.4859314 C266.64889739 314.11624031 225.84689029 302.38746463 193.62055969 277.54452515 C188.44234639 273.29644667 183.5562767 268.77004064 178.70649719 264.15390015 C177.73776672 263.26444702 177.73776672 263.26444702 176.74946594 262.35702515 C151.85058767 238.79930425 136.68886789 201.96647794 134.70649719 168.15390015 C133.61672577 167.92936661 132.52695435 167.70483307 131.40415955 167.47349548 C118.03372221 164.69924963 104.72357792 161.68481874 91.41743469 158.6187439 C89.1344518 158.09353306 86.85146217 157.56835154 84.56846619 157.04319763 C79.82331708 155.95113491 75.0785257 154.85753269 70.3339386 153.76303101 C64.270605 152.36462636 58.20596376 150.97198143 52.14099693 149.58067989 C47.44246666 148.50184047 42.74485571 147.41904001 38.04748917 146.33514595 C35.81122855 145.81982053 33.57463759 145.30592638 31.3377037 144.79353142 C28.21535413 144.07789448 25.09434115 143.35668282 21.97358704 142.63412476 C20.60818283 142.32310318 20.60818283 142.32310318 19.2151947 142.00579834 C2.30147443 138.06674393 2.30147443 138.06674393 -2.15905952 132.21932793 C-5.69454525 125.78243457 -5.73785567 117.16239863 -6.43852234 109.96591187 C-6.5363501 109.00194489 -6.63417786 108.03797791 -6.73497009 107.0447998 C-7.05364969 103.89153251 -7.36520007 100.73760954 -7.67631531 97.58358765 C-7.89734115 95.37498848 -8.11869044 93.16642167 -8.34034729 90.95788574 C-8.80233757 86.34368192 -9.26086774 81.7291514 -9.71684265 77.11434937 C-10.30029313 71.21159881 -10.89170159 65.30967847 -11.48561287 59.40797234 C-11.943242 54.85285453 -12.39699782 50.29735734 -12.84955978 45.74173355 C-13.06613941 43.56560352 -13.2838311 41.38958385 -13.5026741 39.21368027 C-13.80808453 36.17052299 -14.10835298 33.1269002 -14.40727234 30.08309937 C-14.49763763 29.19249817 -14.58800293 28.30189697 -14.68110657 27.38430786 C-16.17511184 11.9763137 -16.17511184 11.9763137 -12.29350281 6.15390015 C-8.46267859 2.37415358 -5.43015127 0.03852154 0 0 Z M238.17915344 110.0015564 C227.87377045 123.01617486 222.09144783 137.85426196 222.26899719 154.46640015 C222.27657043 155.4696936 222.28414368 156.47298706 222.29194641 157.50668335 C222.70944817 176.41768466 230.73768104 192.05037923 243.93305969 205.4078064 C256.5805674 217.18384273 272.44287695 223.42929909 289.70649719 224.15390015 C308.68172451 223.32256489 324.36625969 215.22326988 337.70649719 202.15390015 C338.33427063 201.56222046 338.96204407 200.97054077 339.60884094 200.3609314 C351.59196453 188.05173642 357.11005962 169.30389415 356.92134094 152.52890015 C355.74764322 134.0911759 348.23122146 116.36517206 334.56196594 103.6968689 C304.72704917 78.88678021 264.08944243 80.80742861 238.17915344 110.0015564 Z " fill="#FFFFFF" transform="translate(41.29350280761719,159.84609985351563)"/>
<path d="M0 0 C4.52966583 2.47551505 7.16586374 5.37259122 8.8125 10.3125 C9.015625 12.36328125 9.015625 12.36328125 9.0625 14.625 C9.08828125 15.36363281 9.1140625 16.10226563 9.140625 16.86328125 C8.28587532 23.24337704 4.18218873 27.39940295 -0.17578125 31.734375 C-0.75659958 32.32043518 -1.33741791 32.90649536 -1.93583679 33.51031494 C-3.16007546 34.74094797 -4.3881654 35.96776048 -5.61987305 37.19091797 C-7.49611879 39.05863643 -9.35291887 40.94428221 -11.20898438 42.83203125 C-12.40511832 44.02977706 -13.60234809 45.22642973 -14.80078125 46.421875 C-15.626101 47.26404572 -15.626101 47.26404572 -16.46809387 48.12322998 C-20.45445332 52.03908764 -23.98963122 54.07525471 -29.71484375 54.5 C-35.36603447 54.06036118 -38.65467412 52.86843574 -42.8125 48.98046875 C-45.8213246 45.33055936 -46.541084 42.27221474 -46.6875 37.5625 C-46.7390625 36.57765625 -46.790625 35.5928125 -46.84375 34.578125 C-45.10891645 25.9452628 -36.72981765 19.48220455 -30.7199707 13.47436523 C-29.24548886 11.99547537 -27.78780443 10.50124544 -26.33007812 9.00585938 C-25.37858565 8.04850269 -24.42614362 7.09208862 -23.47265625 6.13671875 C-22.20240601 4.85414185 -22.20240601 4.85414185 -20.90649414 3.5456543 C-14.58329504 -1.6476924 -7.67858952 -3.49802411 0 0 Z " fill="#FFFFFF" transform="translate(264.1875,69.6875)"/>
<path d="M0 0 C1.19882813 0.0309375 1.19882813 0.0309375 2.421875 0.0625 C6.95778765 1.56611745 9.84470763 4.72855893 13.25 8 C14.57161133 9.26505371 14.57161133 9.26505371 15.91992188 10.55566406 C18.34488757 12.90510892 20.75089774 15.27021612 23.14306641 17.65283203 C24.63656647 19.13649025 26.14041864 20.60914251 27.64453125 22.08203125 C28.60482059 23.03580039 29.5644794 23.99020489 30.5234375 24.9453125 C31.38372559 25.79625488 32.24401367 26.64719727 33.13037109 27.52392578 C36.96666557 32.00534694 37.65208455 36.06688148 37.5 41.7890625 C36.98366065 46.35543863 35.15351783 49.14403574 31.875 52.25 C26.95281478 55.53145681 23.21074619 56.60617758 17.25 56 C9.44554438 53.1195745 4.25324394 47.54831461 -1.44262695 41.71899414 C-3.06555237 40.05937863 -4.70409546 38.41650848 -6.34570312 36.77539062 C-7.39417979 35.71708678 -8.44173863 34.65787268 -9.48828125 33.59765625 C-10.21486687 32.86773216 -10.21486687 32.86773216 -10.95613098 32.12306213 C-15.56338318 27.38645095 -18.17887295 23.76571859 -18.1875 17.0625 C-18.048092 11.89806726 -17.35530963 8.89763203 -13.75 5 C-9.31248384 0.89529756 -5.98564924 -0.30500124 0 0 Z " fill="#FFFFFF" transform="translate(107.75,68)"/>
<path d="M0 0 C10.89 0 21.78 0 33 0 C33.09224838 4.98141263 33.17175286 9.95981736 33.21972656 14.94140625 C33.2397406 16.63291511 33.26696073 18.32435567 33.30175781 20.015625 C33.35073065 22.45850554 33.37307033 24.90046511 33.390625 27.34375 C33.41127014 28.08991577 33.43191528 28.83608154 33.45318604 29.6048584 C33.45551595 35.15843222 32.06834561 39.3520739 29 44 C24.11883485 48.64305954 20.03299394 49.35728013 13.50390625 49.28125 C8.54953445 48.7247527 5.86074694 45.97706409 2.6875 42.375 C-0.36525649 38.0785279 -0.12987292 34.61611592 -0.09765625 29.4921875 C-0.0962413 28.65156769 -0.09482635 27.81094788 -0.09336853 26.94485474 C-0.08776237 24.25486725 -0.07520886 21.56496241 -0.0625 18.875 C-0.05748579 17.05338662 -0.05292275 15.23177193 -0.04882812 13.41015625 C-0.038641 8.94004656 -0.01906685 4.47011601 0 0 Z " fill="#FFFFFF" transform="translate(165,58)"/>
</svg>
